Patient4_TMGait_0pt4_02_left_36_EMG.mot
version=1
nRows=20
nColumns=33
inDegrees=no
endheader
time	1LAddLong	2LGlutMax	3LGlutMed	4LIliopsoas	5LSemiMemb	6LBicFemLong	7LRecFem	8LVastMed	9LVastLat	10LGasMed	11LTibAnt	12lTibPost	13LPeroneusLong	14LSol	15LExtDigLong	16LFlexDigLong	17RAddLong	18RGlutMax	19RGlutMed	20RIliopsoas	21RSemiMemb	22RBicFemLong	23RRecFem	24RVastMed	25RVastLat	26RGasMed	27RTibAnt	28RTibPost	29RPeroneusLong	30RSol	31RExtDigLong	32RFlexDigLong
49.06	0.001526	-0.16769	-0.23972	0.009308	-0.007172	0.00412	0.17441	0.007629	-0.029297	-0.21393	-0.033875	-0.01358	0.076599	-0.028076	0.010529	-0.002136	-0.098114	0.097961	-0.78949	-0.094452	-0.11551	0.22598	0.025024	-0.071716	-0.24094	-0.000916	-0.22125	0.001526	0.086517	0.006866	-0.002136	-0.009003
49.061	0.013428	-0.17532	-0.26184	0.02182	0.001831	-0.003357	0.16876	0.006714	-0.026093	-0.027008	-0.023956	-0.024567	0.055084	0.029602	0.02533	0.005035	-0.038147	0.055389	0.14801	-0.19898	-0.034637	0.30884	-0.046844	-0.088196	-0.15076	0.000153	-0.17151	-0.002441	0.06958	-0.021057	-0.007019	-0.009918
49.062	-0.008698	-0.14633	-0.17044	0.026245	0.016937	-0.061646	0.14328	0.005798	-0.047455	0.10376	-0.012665	-0.023956	0.03067	0.081635	0.015259	0.005341	0.044556	-0.010071	0.62897	-0.14267	0.2475	0.21225	-0.016327	-0.31097	-0.048981	-0.006409	-0.087738	-0.007172	0.042267	0.006866	-0.002289	-0.011749
49.063	0.000763	-0.11765	-0.11658	0.019379	0.039063	-0.062561	0.12039	0.008087	-0.041504	0.11643	-0.005188	-0.025024	-0.073242	0.07019	0.003967	0.018005	0.12894	-0.077972	0.49591	-0.1149	-0.010681	-0.045776	0.020447	0.061493	0.12833	0	-0.014038	-0.004425	0.006409	-0.005798	0	-0.009766
49.064	0.013123	-0.14267	-0.2269	0.024719	0.046082	-0.04364	0.085449	0.002441	-0.045624	0.24506	0.010681	-0.025024	-0.079498	-0.002441	-0.005951	0.014801	0.15671	-0.12344	0.70145	-0.11551	-0.18143	-0.099945	0.18845	0.30991	0.15305	0.003357	-0.05722	-0.00351	-0.001831	-0.024719	-0.000763	-0.010986
49.065	0.010834	-0.13168	-0.28992	0.030212	0.031586	-0.062714	0.099487	-0.002899	-0.052643	0.11459	-0.002441	-0.015411	-0.041046	0.035706	-0.011292	-0.009003	0.093384	-0.089264	0.60028	0.037537	-0.04303	-0.009003	0.27374	0.081635	0.13931	-0.004883	-0.08255	0.001373	0.010529	-0.063934	-0.00351	-0.001831
49.066	-0.020142	-0.12344	-0.30655	0.044556	0.002899	-0.00946	0.075226	0.005035	-0.054016	-0.099182	-0.007172	-0.016479	0.012512	0.072021	-0.007629	-0.16449	0.081024	-0.13626	0.30304	0.23117	-0.014648	0.017395	0.31189	0.010223	0.14343	-0.002441	-0.11871	-0.003204	0.016479	-0.048065	-0.00061	-0.00351
49.067	0.0354	-0.12146	-0.28336	0.042572	-0.00473	-0.007629	0.050659	0.000153	-0.046082	-0.16846	0.001373	-0.006561	0.036926	0.029297	0.010376	-0.20035	0.10712	-0.1178	0.25848	0.2449	0.12192	0.015106	0.21698	-0.17853	0.2919	-0.006104	-0.15884	-0.009766	0.023956	-0.016022	0.001678	-0.000916
49.068	0.03952	-0.092163	-0.23758	0.010376	-0.011292	-0.003815	0.043488	0.001373	-0.041046	-0.47165	0.009003	-0.00412	-0.003357	-0.14923	0.036774	0.93903	0.11246	-0.12756	0.23514	0.13901	0.071259	-0.095825	0.17792	-0.3566	0.23712	-0.008087	-0.19501	-0.013885	0.010681	-0.024567	0.000153	0.001831
49.069	-0.011749	-0.088501	-0.25986	-0.011292	-0.010071	-0.010071	0.017548	-0.000916	-0.027008	-0.63843	0.00946	-0.007324	-0.037384	-0.062714	0.043488	-0.2034	0.017395	-0.09552	0.20874	0.046234	-0.023499	-0.16403	0.15381	-0.43167	0.10452	-0.007324	-0.24246	-0.005341	0.034027	-0.005798	-0.002136	0.009003
49.07	0.005341	-0.050812	-0.23529	-0.015564	-0.006561	-0.005493	0.014038	-0.004425	-0.031128	-0.30685	-0.000916	-0.0177	-0.074615	-0.19684	0.027161	0.057373	-0.080566	-0.13702	0.22888	-0.13046	0.038605	-0.044708	0.11246	-0.36743	0.054016	-0.005341	-0.1683	-0.007172	-0.121	-0.036774	0.000305	-0.001678
49.071	0.009155	-0.041962	-0.24475	-0.010681	-0.003052	-0.016174	-0.006561	-0.001068	-0.023193	0.054932	-0.003815	-0.015869	-0.083771	-0.42099	0.020905	0.09903	-0.17441	-0.16541	0.20783	-0.20798	0.053864	0.16098	-0.2359	-0.32333	0.050201	-0.000763	-0.013733	-0.005341	-0.10086	-0.027313	0.002747	-0.009613
49.072	0.03479	-0.016632	-0.21805	-0.005341	-0.005798	-0.022736	-0.014191	-0.001068	-0.014496	0.03067	0.001678	-0.019073	-0.049896	-0.11826	0.001221	0.3006	-0.13412	-0.13473	0.1416	0.021973	0.41092	0.06424	-0.49439	-0.14038	0.08667	-0.000458	0.17029	0.000458	-0.060272	-0.035248	0.005646	-0.012207
49.073	-0.040894	-0.008392	-0.17975	0.003052	0.000153	-0.036163	-0.018005	0.003204	-0.013123	0.062561	0.001984	-0.002289	-0.012054	0.16007	-0.015259	0.25085	-0.060425	-0.05127	0.17288	0.15732	0.42023	-0.07309	-0.60196	0.20584	0.11261	-0.001831	0.27374	-0.005188	-0.00061	-0.059204	-0.00061	-0.012512
49.074	-0.014343	0.023956	-0.19623	0.016632	0.007172	-0.018158	-0.029144	0.005951	-0.021057	0.18707	0.006256	0.042877	0.15991	0.15717	-0.030212	-0.1564	0.045624	-0.018005	0.14908	0.11353	0.061035	0.081482	-0.46646	0.20676	0.13931	-0.00351	0.27313	-0.000458	-0.49179	-0.06897	-0.001068	-0.009613
49.075	0.007629	0.045319	-0.18768	0.012665	0.006104	-0.001526	-0.063324	0.003052	-0.016632	0.13306	0.001221	0.14542	0.13062	-0.087433	-0.03952	-0.5986	0.17716	0.019836	0.17868	0.065308	0.037079	0.092163	-0.30411	0.071564	0.16129	-0.00946	0.23331	-0.000916	-0.30716	-0.002899	-0.000305	-0.014038
49.076	-0.003357	0.053101	-0.17624	0.006561	0.003967	0.002289	-0.050049	0.006256	-0.032959	0.094299	0.005035	-0.033722	0.12222	-0.19012	-0.00061	0.009155	0.22705	0.057373	0.15182	0.042877	-0.050049	0.005188	-0.07019	-0.12772	0.10178	-0.010834	0.14542	-0.008698	0.71289	0.034637	-0.002747	-0.014038
49.077	0.010223	0.066528	-0.18387	0.00824	0.007019	0.009766	-0.053253	0.002136	-0.028534	0.05127	0.000763	-0.012207	0.14023	0.035553	0.024719	0.11719	0.1712	0.017395	0.18051	0.045929	-0.19623	-0.10773	-0.062714	-0.18112	0.068817	-0.009308	0.002594	-0.004272	-0.18005	0.019989	-0.005951	-0.002899
49.078	-0.001373	0.036774	-0.17944	-0.006104	-0.005646	0.026245	-0.07309	0.002747	-0.01236	0.007324	0.005646	-0.023041	0.10147	0.10757	-0.037537	0.048065	-0.005798	-0.025024	0.17441	0.10819	-0.50079	-0.024109	-0.29022	0.062103	0.057983	-0.003662	-0.044403	-0.002747	-0.43518	0.019226	-0.00412	-0.019989
49.079	-0.006866	0.047455	-0.19318	-0.002747	-0.010681	-0.002594	-0.092926	0.011749	-0.011902	0.001068	0.003815	-0.075684	0.056152	-0.019684	-0.065918	0.020447	-0.15854	0.033722	0.089874	0.14374	0.064697	0.15076	-0.38742	0.21668	0.043488	-0.013275	0.042419	-0.001984	-0.36499	-0.045013	-0.004578	-0.012207
